<?xml version="1.0" encoding="utf-8"?>
<svg version="1.1" id="Layer_1" xmlns="http://www.w3.org/2000/svg" xmlns:xlink="http://www.w3.org/1999/xlink" x="0px"
     y="0px"
     viewBox="0 0 500 500" style="enable-background:new 0 0 500 500;" xml:space="preserve">
<g>
	<path fill="#FFF" d="M198.96,289.03L234.99,253l24.02,24.02l51.04-57.52l-8.47-8.53l-42.57,48.03l-24.02-24.02l-45.03,45.03
		L198.96,289.03z"/>
    <g>
		<path fill="#FFF" d="M384.17,92c13.14,0,23.83,10.69,23.83,23.83v267.35c0,13.14-10.69,23.83-23.83,23.83H116.83
			C103.69,407,93,396.31,93,383.17V115.83C93,102.69,103.69,92,116.83,92H384.17 M384.17,78H116.83C95.94,78,79,94.94,79,115.83
			v267.35C79,404.06,95.94,421,116.83,421h267.35c20.89,0,37.83-16.94,37.83-37.83V115.83C422,94.94,405.06,78,384.17,78L384.17,78z
			"/>
	</g>
</g>
</svg>
